<svg width="440" height="200" viewBox="0 0 440 200" xmlns="http://www.w3.org/2000/svg"
     font-family="ui-sans-serif, system-ui, -apple-system, Segoe UI, Roboto, sans-serif">
  <rect x="0" y="0" width="440" height="200" rx="12" fill="#ffffff"/>

  <!-- title -->
  <text x="56" y="24" fill="#202124" font-size="13" font-weight="700">rangeize — fold consecutive numbers into inclusive ranges</text>

  <!-- guide lines at ticks 0,5,10,15 -->
  <g stroke="#e6e8ec" stroke-width="1">
    <line x1="56" y1="50" x2="56" y2="170"/>
    <line x1="176" y1="50" x2="176" y2="170"/>
    <line x1="296" y1="50" x2="296" y2="170"/>
    <line x1="416" y1="50" x2="416" y2="170"/>
  </g>
  <g fill="#9aa0a6" font-size="11" text-anchor="middle">
    <text x="56" y="46">0</text>
    <text x="176" y="46">5</text>
    <text x="296" y="46">10</text>
    <text x="416" y="46">15</text>
  </g>

  <!-- top row: input numbers, colored by the run they belong to -->
  <g fill="#5f6368" font-size="11" text-anchor="end">
    <text x="50" y="73">in</text>
  </g>
  <g font-size="12" font-weight="700" text-anchor="middle">
    <!-- run A (blue): 2,3,4,5 -->
    <rect x="93"  y="56" width="22" height="26" rx="4" fill="#4C8BF5"/>
    <text x="104" y="73" fill="#fff">2</text>
    <rect x="117" y="56" width="22" height="26" rx="4" fill="#4C8BF5"/>
    <text x="128" y="73" fill="#fff">3</text>
    <rect x="141" y="56" width="22" height="26" rx="4" fill="#4C8BF5"/>
    <text x="152" y="73" fill="#fff">4</text>
    <rect x="165" y="56" width="22" height="26" rx="4" fill="#4C8BF5"/>
    <text x="176" y="73" fill="#fff">5</text>
    <!-- run B (green): 7 -->
    <rect x="213" y="56" width="22" height="26" rx="4" fill="#34A853"/>
    <text x="224" y="73" fill="#fff">7</text>
    <!-- run C (purple): 11,12 -->
    <rect x="309" y="56" width="22" height="26" rx="4" fill="#A142F4"/>
    <text x="320" y="73" fill="#fff">11</text>
    <rect x="333" y="56" width="22" height="26" rx="4" fill="#A142F4"/>
    <text x="344" y="73" fill="#fff">12</text>
  </g>

  <!-- transform caption -->
  <text x="220" y="104" fill="#5f6368" font-size="12" font-weight="600" text-anchor="middle">rangeize( )   ↓   merge adjacent values</text>

  <!-- bottom row: resulting ranges as bars -->
  <g fill="#5f6368" font-size="11" text-anchor="end">
    <text x="50" y="135">out</text>
  </g>
  <g font-size="12" font-weight="600" text-anchor="middle">
    <rect x="93"  y="120" width="94" height="22" rx="4" fill="#4C8BF5"/>
    <text x="140" y="135" fill="#fff">2 – 5</text>
    <rect x="213" y="120" width="22" height="22" rx="4" fill="#34A853"/>
    <text x="224" y="135" fill="#fff">7</text>
    <rect x="309" y="120" width="46" height="22" rx="4" fill="#A142F4"/>
    <text x="332" y="135" fill="#fff">11 – 12</text>
  </g>

  <!-- caption -->
  <text x="56" y="186" fill="#9aa0a6" font-size="11">[2, 3, 4, 5, 7, 11, 12]  →  [2-5, 7, 11-12]</text>
</svg>
