<?xml version="1.0" encoding="UTF-8"?>
<svg width="1000px" height="600px" viewBox="0 0 1000 600" version="1.1" xmlns="http://www.w3.org/2000/svg" xmlns:xlink="http://www.w3.org/1999/xlink">
    <!-- Generator: Sketch 51.2 (57519) - http://www.bohemiancoding.com/sketch -->
    <title>eyecatch</title>
    <desc>Created with Sketch.</desc>
    <defs></defs>
    <g id="eyecatch" stroke="none" stroke-width="1" fill="none" fill-rule="evenodd">
        <polyline id="Path-2" stroke="#000000" stroke-width="10" stroke-linecap="round" stroke-linejoin="round" fill-rule="nonzero" points="161 335 172.260563 277 220.801056 348 233 290"></polyline>
        <polyline id="Path-2" stroke="#000000" stroke-width="10" stroke-linecap="round" stroke-linejoin="round" fill-rule="nonzero" transform="translate(681.287466, 298.556211) rotate(-21.000000) translate(-681.287466, -298.556211) " points="622.433221 339.186553 657.738903 244.582928 704.810525 352.529495 740.141711 257.857532"></polyline>
        <g id="A" transform="translate(41.000000, 208.076335)" fill-rule="nonzero" stroke="#000000" stroke-linecap="round" stroke-linejoin="round" stroke-width="10">
            <polyline id="Path-3" points="0 103.225806 74.16 0 103 128"></polyline>
            <path d="M10,59 L80,108" id="Path-4"></path>
        </g>
        <g id="anozon-icon" opacity="0.515513393" transform="translate(68.000000, 337.076335)" fill-rule="nonzero" stroke="#000000" stroke-linecap="round" stroke-linejoin="bevel" stroke-width="6">
            <g id="eye" transform="translate(94.545455, 13.023256)">
                <ellipse id="Oval" cx="17.5" cy="30.5" rx="17.5" ry="30.5"></ellipse>
            </g>
            <g id="eye">
                <ellipse id="Oval" cx="17.5" cy="30.5" rx="17.5" ry="30.5"></ellipse>
            </g>
            <polyline id="Path-2" points="44.9267466 71.671519 57.509175 75.409748 44.1866037 78.1511159 55.0420322 82.1385601"></polyline>
            <polyline id="Path-3" points="3.2231405 108.527132 18.7510938 129.343832 42.9056879 117.94421 53.7506077 136.282732 77.9052018 123.644021 87.0247934 140"></polyline>
        </g>
        <g id="Group-3" transform="translate(749.000000, 257.076335)" fill-rule="nonzero">
            <path d="M86,0 L86,90.2758621" id="Path-12" stroke="#000000" stroke-width="10" stroke-linecap="round" stroke-linejoin="round"></path>
            <g id="o" transform="translate(56.597684, 59.874902) rotate(-12.000000) translate(-56.597684, -59.874902) translate(10.097684, 9.607661)">
                <path d="" id="Path-13" stroke="#979797" stroke-width="1"></path>
                <polygon id="Path-14" stroke="#000000" stroke-width="10" stroke-linecap="round" stroke-linejoin="round" transform="translate(47.552233, 50.518855) rotate(-348.000000) translate(-47.552233, -50.518855) " points="20.0522331 34.0290588 47.5522331 17.5392629 75.0522331 34.0290588 75.0522331 67.0086507 47.5522331 83.4984466 20.0522331 67.0086507"></polygon>
            </g>
        </g>
        <g id="o" transform="translate(227.000000, 274.076335)" fill-rule="nonzero">
            <path d="" id="Path-13" stroke="#979797" stroke-width="1"></path>
            <polygon id="Path-14" stroke="#000000" stroke-width="10" stroke-linecap="round" stroke-linejoin="round" transform="translate(47.552233, 49.018295) rotate(-348.000000) translate(-47.552233, -49.018295) " points="20.0522331 33.0182947 47.5522331 17.0182947 75.0522331 33.0182947 75.0522331 65.0182947 47.5522331 81.0182947 20.0522331 65.0182947"></polygon>
        </g>
        <g id="o" transform="translate(769.643387, 253.423665) rotate(-312.000000) translate(-769.643387, -253.423665) translate(723.143387, 202.923665)" fill-rule="nonzero">
            <path d="" id="Path-13" stroke="#979797" stroke-width="1"></path>
            <polygon id="Path-14" stroke="#000000" stroke-width="10" stroke-linecap="round" stroke-linejoin="round" transform="translate(47.552233, 50.518855) rotate(-348.000000) translate(-47.552233, -50.518855) " points="20.0522331 34.0290588 47.5522331 17.5392629 75.0522331 34.0290588 75.0522331 67.0086507 47.5522331 83.4984466 20.0522331 67.0086507"></polygon>
        </g>
        <g id="o-dummy" transform="translate(805.643387, 192.423665) rotate(-312.000000) translate(-805.643387, -192.423665) translate(759.143387, 141.923665)" fill-rule="nonzero">
            <path d="" id="Path-13" stroke="#979797" stroke-width="1"></path>
            <polygon id="Path-14" stroke="#D5D5D5" stroke-width="10" stroke-linecap="round" stroke-linejoin="round" transform="translate(47.500000, 50.500000) rotate(-348.000000) translate(-47.500000, -50.500000) " points="20 34.0102041 47.5 17.5204082 75 34.0102041 75 66.9897959 47.5 83.4795918 20 66.9897959"></polygon>
        </g>
        <g id="o-dummy" transform="translate(876.643387, 191.423665) rotate(-312.000000) translate(-876.643387, -191.423665) translate(830.143387, 140.923665)" fill-rule="nonzero">
            <path d="" id="Path-13" stroke="#979797" stroke-width="1"></path>
            <polygon id="Path-14" stroke="#D5D5D5" stroke-width="10" stroke-linecap="round" stroke-linejoin="round" transform="translate(47.500000, 50.500000) rotate(-348.000000) translate(-47.500000, -50.500000) " points="20 34.0102041 47.5 17.5204082 75 34.0102041 75 66.9897959 47.5 83.4795918 20 66.9897959"></polygon>
        </g>
        <g id="o-dummy" transform="translate(911.643387, 253.423665) rotate(-312.000000) translate(-911.643387, -253.423665) translate(865.143387, 202.923665)" fill-rule="nonzero">
            <path d="" id="Path-13" stroke="#979797" stroke-width="1"></path>
            <polygon id="Path-14" stroke="#D5D5D5" stroke-width="10" stroke-linecap="round" stroke-linejoin="round" transform="translate(47.500000, 50.500000) rotate(-348.000000) translate(-47.500000, -50.500000) " points="20 34.0102041 47.5 17.5204082 75 34.0102041 75 66.9897959 47.5 83.4795918 20 66.9897959"></polygon>
        </g>
        <g id="e" transform="translate(425.000000, 275.076335)" fill-rule="nonzero">
            <path d="" id="Path-13" stroke="#979797" stroke-width="1"></path>
            <polyline id="Path-14" stroke="#000000" stroke-width="10" stroke-linecap="round" stroke-linejoin="round" transform="translate(46.600473, 47.010728) rotate(-168.000000) translate(-46.600473, -47.010728) " points="19.1167755 44.6848117 19.0221987 31.4013219 46.5513039 15.0328868 74.1787467 31.1408154 74.1390056 63.0462892 46.7528422 78.9885698 19.142225 63.081533 74.1787467 31.1408154"></polyline>
        </g>
        <g id="e" transform="translate(878.983404, 319.140682) rotate(-12.000000) translate(-878.983404, -319.140682) translate(832.483404, 268.640682)" fill-rule="nonzero">
            <path d="" id="Path-13" stroke="#979797" stroke-width="1"></path>
            <polyline id="Path-14" stroke="#000000" stroke-width="10" stroke-linecap="round" stroke-linejoin="round" transform="translate(46.600473, 48.449832) rotate(-168.000000) translate(-46.600473, -48.449832) " points="19.1167755 46.0527141 19.0221987 32.3625869 46.5513039 15.4930772 74.1787467 32.0941056 74.1390056 64.9762776 46.7528422 81.4065872 19.142225 65.0126003 74.1787467 32.0941056"></polyline>
        </g>
        <g id="t" transform="translate(325.000000, 259.076335)" fill-rule="nonzero" stroke="#000000" stroke-linecap="round" stroke-linejoin="round" stroke-width="10">
            <path d="M0,49 L36,35" id="Path-5"></path>
            <polyline id="Path-6" points="27 0 6 94 25 86"></polyline>
        </g>
        <g id="h" transform="translate(370.000000, 259.076335)" fill-rule="nonzero" stroke="#000000" stroke-linecap="round" stroke-linejoin="round" stroke-width="10">
            <g id="Group-2">
                <path d="M21,0 L0,94" id="Path-6"></path>
            </g>
            <g id="Group-2-Copy" transform="translate(46.000000, 43.000000)">
                <path d="M11,0 L0,51" id="Path-6"></path>
            </g>
            <g id="Group" transform="translate(9.000000, 43.000000)">
                <path d="M0,16 L48,0" id="Path-7"></path>
            </g>
        </g>
        <g id="r" transform="translate(514.000000, 295.076335)" fill-rule="nonzero" stroke="#000000" stroke-linecap="round" stroke-linejoin="round" stroke-width="10">
            <g id="Group-2-Copy-2" transform="translate(6.500000, 29.000000) rotate(-360.000000) translate(-6.500000, -29.000000) ">
                <path d="M13,0 L0,58" id="Path-6"></path>
            </g>
            <g id="Group-2-Copy-3" transform="translate(54.000000, 7.000000)">
                <path d="M3,0 L0,14" id="Path-6"></path>
            </g>
            <g id="Group-Copy" transform="translate(9.000000, 7.000000)">
                <path d="M0,16 L48,0" id="Path-7"></path>
            </g>
        </g>
        <path d="" id="Path-17" stroke="#979797" fill-rule="nonzero"></path>
        <g id="anozon-name" transform="translate(517.000000, 413.000000)" fill-rule="nonzero">
            <polygon id="Rectangle-3" fill="#DADADA" points="17.4920348 20 400.507965 20 418 49 400.507965 78 17.4920348 78 0 49"></polygon>
            <g id="anozon" transform="translate(41.000000, 14.000000)">
                <g id="anozon-n" transform="translate(34.600000, -13.000000)">
                    <g id="simbol" opacity="0.0619977679" transform="translate(42.500000, 42.500000) rotate(-45.000000) translate(-42.500000, -42.500000) translate(13.000000, 13.000000)" fill="#000000">
                        <path d="M29.5,59 C13.2075999,59 0,45.7924001 0,29.5 C0,13.2075999 13.2075999,0 29.5,0 C45.7924001,0 59,13.2075999 59,29.5 C59,45.7924001 45.7924001,59 29.5,59 Z M29.5,56.05 C44.1631601,56.05 56.05,44.1631601 56.05,29.5 C56.05,14.8368399 44.1631601,2.95 29.5,2.95 C14.8368399,2.95 2.95,14.8368399 2.95,29.5 C2.95,44.1631601 14.8368399,56.05 29.5,56.05 Z" id="Combined-Shape"></path>
                        <rect id="line2" x="28.025" y="1.475" width="2.95" height="56.05"></rect>
                        <rect id="line1" transform="translate(15.497210, 15.497210) rotate(-315.000000) translate(-15.497210, -15.497210) " x="14.02221" y="-4.31836507" width="2.95" height="39.6311502"></rect>
                        <rect id="Rectangle" transform="translate(22.503846, 22.503846) rotate(-225.000000) translate(-22.503846, -22.503846) " x="21.0288463" y="12.5960587" width="2.95" height="19.8155751"></rect>
                        <rect id="line3" transform="translate(43.522210, 43.522210) rotate(-315.000000) translate(-43.522210, -43.522210) " x="42.04721" y="23.7066349" width="2.95" height="39.6311502"></rect>
                    </g>
                    <path d="M24.25,32 L24.25,68" id="Path-16" stroke="#000000" stroke-width="7" stroke-linecap="square" stroke-linejoin="round"></path>
                    <path d="M61,68 C61,62.4781786 61,56.3115119 61,49.5 C61,39.2827321 52.7172679,31 42.5,31 C32.2827321,31 24,39.2827321 24,49.5" id="Oval-4" stroke="#000000" stroke-width="7" stroke-linecap="square" stroke-linejoin="round"></path>
                </g>
                <g id="anozon-a" transform="translate(-13.000000, -13.000000)">
                    <path d="M60,32 L60,68" id="Path-16" stroke="#000000" stroke-width="7" stroke-linecap="square" stroke-linejoin="round"></path>
                    <g id="simbol" opacity="0.0619977679" transform="translate(42.500000, 42.500000) rotate(-45.000000) translate(-42.500000, -42.500000) translate(13.000000, 13.000000)" fill="#000000">
                        <path d="M29.5,59 C13.2075999,59 0,45.7924001 0,29.5 C0,13.2075999 13.2075999,0 29.5,0 C45.7924001,0 59,13.2075999 59,29.5 C59,45.7924001 45.7924001,59 29.5,59 Z M29.5,56.05 C44.1631601,56.05 56.05,44.1631601 56.05,29.5 C56.05,14.8368399 44.1631601,2.95 29.5,2.95 C14.8368399,2.95 2.95,14.8368399 2.95,29.5 C2.95,44.1631601 14.8368399,56.05 29.5,56.05 Z" id="Combined-Shape"></path>
                        <rect id="line2" x="28.025" y="1.475" width="2.95" height="56.05"></rect>
                        <rect id="line1" transform="translate(15.497210, 15.497210) rotate(-315.000000) translate(-15.497210, -15.497210) " x="14.02221" y="-4.31836507" width="2.95" height="39.6311502"></rect>
                        <rect id="Rectangle" transform="translate(22.503846, 22.503846) rotate(-225.000000) translate(-22.503846, -22.503846) " x="21.0288463" y="12.5960587" width="2.95" height="19.8155751"></rect>
                        <rect id="line3" transform="translate(43.522210, 43.522210) rotate(-315.000000) translate(-43.522210, -43.522210) " x="42.04721" y="23.7066349" width="2.95" height="39.6311502"></rect>
                    </g>
                    <circle id="Oval-4" stroke="#000000" stroke-width="7" stroke-linecap="square" stroke-linejoin="round" cx="42.5" cy="49.5" r="18.5"></circle>
                </g>
                <g id="anozon-o" transform="translate(82.200000, -13.000000)">
                    <g id="simbol" opacity="0.0619977679" transform="translate(42.500000, 42.500000) rotate(-315.000000) translate(-42.500000, -42.500000) translate(13.000000, 13.000000)" fill="#000000">
                        <path d="M29.5,59 C13.2075999,59 0,45.7924001 0,29.5 C0,13.2075999 13.2075999,0 29.5,0 C45.7924001,0 59,13.2075999 59,29.5 C59,45.7924001 45.7924001,59 29.5,59 Z M29.5,56.05 C44.1631601,56.05 56.05,44.1631601 56.05,29.5 C56.05,14.8368399 44.1631601,2.95 29.5,2.95 C14.8368399,2.95 2.95,14.8368399 2.95,29.5 C2.95,44.1631601 14.8368399,56.05 29.5,56.05 Z" id="Combined-Shape"></path>
                        <rect id="line2" x="28.025" y="1.475" width="2.95" height="56.05"></rect>
                        <rect id="line1" transform="translate(15.497210, 15.497210) rotate(-315.000000) translate(-15.497210, -15.497210) " x="14.02221" y="-4.31836507" width="2.95" height="39.6311502"></rect>
                        <rect id="Rectangle" transform="translate(22.503846, 22.503846) rotate(-225.000000) translate(-22.503846, -22.503846) " x="21.0288463" y="12.5960587" width="2.95" height="19.8155751"></rect>
                        <rect id="line3" transform="translate(43.522210, 43.522210) rotate(-315.000000) translate(-43.522210, -43.522210) " x="42.04721" y="23.7066349" width="2.95" height="39.6311502"></rect>
                    </g>
                    <circle id="Oval-4" stroke="#000000" stroke-width="7" stroke-linecap="square" stroke-linejoin="round" cx="42.5" cy="49.5" r="18.5"></circle>
                </g>
                <g id="anozon-z" transform="translate(129.800000, -13.000000)">
                    <g id="simbol" opacity="0.0619977679" transform="translate(42.500000, 42.500000) rotate(-315.000000) translate(-42.500000, -42.500000) translate(13.000000, 13.000000)" fill="#000000">
                        <path d="M29.5,59 C13.2075999,59 0,45.7924001 0,29.5 C0,13.2075999 13.2075999,0 29.5,0 C45.7924001,0 59,13.2075999 59,29.5 C59,45.7924001 45.7924001,59 29.5,59 Z M29.5,56.05 C44.1631601,56.05 56.05,44.1631601 56.05,29.5 C56.05,14.8368399 44.1631601,2.95 29.5,2.95 C14.8368399,2.95 2.95,14.8368399 2.95,29.5 C2.95,44.1631601 14.8368399,56.05 29.5,56.05 Z" id="Combined-Shape"></path>
                        <rect id="line2" x="28.025" y="1.475" width="2.95" height="56.05"></rect>
                        <rect id="line1" transform="translate(15.497210, 15.497210) rotate(-315.000000) translate(-15.497210, -15.497210) " x="14.02221" y="-4.31836507" width="2.95" height="39.6311502"></rect>
                        <rect id="Rectangle" transform="translate(22.503846, 22.503846) rotate(-225.000000) translate(-22.503846, -22.503846) " x="21.0288463" y="12.5960587" width="2.95" height="19.8155751"></rect>
                        <rect id="line3" transform="translate(43.522210, 43.522210) rotate(-315.000000) translate(-43.522210, -43.522210) " x="42.04721" y="23.7066349" width="2.95" height="39.6311502"></rect>
                    </g>
                    <polyline id="Path-11" stroke="#000000" stroke-width="7" stroke-linecap="square" stroke-linejoin="round" transform="translate(43.000000, 51.000000) rotate(-270.000000) translate(-43.000000, -51.000000) " points="27 67 27 35 59 67 59 35"></polyline>
                </g>
                <g id="anozon-o" transform="translate(177.400000, -13.000000)">
                    <g id="simbol" opacity="0.0619977679" transform="translate(42.500000, 42.500000) rotate(-315.000000) translate(-42.500000, -42.500000) translate(13.000000, 13.000000)" fill="#000000">
                        <path d="M29.5,59 C13.2075999,59 0,45.7924001 0,29.5 C0,13.2075999 13.2075999,0 29.5,0 C45.7924001,0 59,13.2075999 59,29.5 C59,45.7924001 45.7924001,59 29.5,59 Z M29.5,56.05 C44.1631601,56.05 56.05,44.1631601 56.05,29.5 C56.05,14.8368399 44.1631601,2.95 29.5,2.95 C14.8368399,2.95 2.95,14.8368399 2.95,29.5 C2.95,44.1631601 14.8368399,56.05 29.5,56.05 Z" id="Combined-Shape"></path>
                        <rect id="line2" x="28.025" y="1.475" width="2.95" height="56.05"></rect>
                        <rect id="line1" transform="translate(15.497210, 15.497210) rotate(-315.000000) translate(-15.497210, -15.497210) " x="14.02221" y="-4.31836507" width="2.95" height="39.6311502"></rect>
                        <rect id="Rectangle" transform="translate(22.503846, 22.503846) rotate(-225.000000) translate(-22.503846, -22.503846) " x="21.0288463" y="12.5960587" width="2.95" height="19.8155751"></rect>
                        <rect id="line3" transform="translate(43.522210, 43.522210) rotate(-315.000000) translate(-43.522210, -43.522210) " x="42.04721" y="23.7066349" width="2.95" height="39.6311502"></rect>
                    </g>
                    <circle id="Oval-4" stroke="#000000" stroke-width="7" stroke-linecap="square" stroke-linejoin="round" cx="42.5" cy="49.5" r="18.5"></circle>
                </g>
                <g id="anozon-n" transform="translate(225.000000, -13.000000)">
                    <g id="simbol" opacity="0.0619977679" transform="translate(42.500000, 42.500000) rotate(-45.000000) translate(-42.500000, -42.500000) translate(13.000000, 13.000000)" fill="#000000">
                        <path d="M29.5,59 C13.2075999,59 0,45.7924001 0,29.5 C0,13.2075999 13.2075999,0 29.5,0 C45.7924001,0 59,13.2075999 59,29.5 C59,45.7924001 45.7924001,59 29.5,59 Z M29.5,56.05 C44.1631601,56.05 56.05,44.1631601 56.05,29.5 C56.05,14.8368399 44.1631601,2.95 29.5,2.95 C14.8368399,2.95 2.95,14.8368399 2.95,29.5 C2.95,44.1631601 14.8368399,56.05 29.5,56.05 Z" id="Combined-Shape"></path>
                        <rect id="line2" x="28.025" y="1.475" width="2.95" height="56.05"></rect>
                        <rect id="line1" transform="translate(15.497210, 15.497210) rotate(-315.000000) translate(-15.497210, -15.497210) " x="14.02221" y="-4.31836507" width="2.95" height="39.6311502"></rect>
                        <rect id="Rectangle" transform="translate(22.503846, 22.503846) rotate(-225.000000) translate(-22.503846, -22.503846) " x="21.0288463" y="12.5960587" width="2.95" height="19.8155751"></rect>
                        <rect id="line3" transform="translate(43.522210, 43.522210) rotate(-315.000000) translate(-43.522210, -43.522210) " x="42.04721" y="23.7066349" width="2.95" height="39.6311502"></rect>
                    </g>
                    <path d="M24.25,32 L24.25,68" id="Path-16" stroke="#000000" stroke-width="7" stroke-linecap="square" stroke-linejoin="round"></path>
                    <path d="M61,68 C61,62.4781786 61,56.3115119 61,49.5 C61,39.2827321 52.7172679,31 42.5,31 C32.2827321,31 24,39.2827321 24,49.5" id="Oval-4" stroke="#000000" stroke-width="7" stroke-linecap="square" stroke-linejoin="round"></path>
                </g>
            </g>
            <polyline id="Path-18" stroke="#000000" stroke-width="7" stroke-linecap="square" stroke-linejoin="round" points="32.7732434 20 14 49 32.7732434 78"></polyline>
            <polyline id="Path-18-Copy" stroke="#000000" stroke-width="7" stroke-linecap="square" stroke-linejoin="round" transform="translate(396.386622, 49.000000) scale(-1, 1) translate(-396.386622, -49.000000) " points="405.773243 20 387 49 405.773243 78"></polyline>
            <path d="M371.5,0.5 L334,99" id="Path-19" stroke="#000000" stroke-width="7" stroke-linecap="square" stroke-linejoin="round"></path>
        </g>
    </g>
</svg>